<svg xmlns="http://www.w3.org/2000/svg" viewBox="0 0 800.04 375.33"><defs><style>.cls-1{fill:#fff;}</style></defs><g id="Layer_2" data-name="Layer 2"><g id="BACKGROUND"><path class="cls-1" d="M56.06,240.09a96.8,96.8,0,0,1-28.52,6.79C-2,244.51,0,219,0,219c.68-25.47,25.47-26.49,25.47-26.49h143Zm109,5.1c4.76,3.39,14.95,3.05,14.95,3.05,24.44-2.71,25.12-28.52,25.12-28.52,0-18.68-10.86-22.41-10.86-22.41-2.72-2-10.19,0-10.19,0l-67.24,25.8ZM101.9,230.41s-57.56,28.27-71.82,27.76c0,0,12.23,18.85,16.05,22.67,0,0,42.78,49.16-9.68,94.49,0,0,115.88-32.35,135.74-115.88Zm.58-40.49c25.53-18.08,22.34-31.07,22.34-31.07-12.48,11.46-22,.76-22,.76-8.25,10.7-22.7-.76-22.7-.76C78.22,171,102.48,189.92,102.48,189.92ZM76.26,156.39s-29.2-19.53,28.53-62.15c0,0,4.75,11,22.24,25,0,0,21.22,21.4,1.7,37.19,0,0,45.67,4.75,50.94-46,0,0,2.37-20.88-23.27-43.63L121.09,31.93s-18.51-18,7.47-31.92c0,0-15.62-1-30.22,15.62L72.53,42.12S50.63,61.81,41.46,74c0,0-16.13,15.28-16.13,38.54C25.33,112.58,26.35,158.93,76.26,156.39Z"/><path class="cls-1" d="M233.09,299l-19.2-104.49h27.76l8.07,56.39q.72,5.07,1,8.81c.22,2.5.37,4.87.47,7.1q1.29-5.13,2.5-9.38t2.14-7.1l18.56-55.82h25.76l7.57,56.39c.47,3.28.82,6.18,1,8.71s.37,4.92.47,7.2a64.31,64.31,0,0,1,1.67-6.53q1.11-3.6,3.39-9.95l21.06-55.82h29L320.59,299H292l-7.13-48.6c-.48-3.28-.84-6.2-1.07-8.74s-.39-5-.43-7.25q-1.21,4.71-2.39,8.89t-2.25,7.6L262.85,299Z"/><path class="cls-1" d="M353.24,299l11.35-72.08h25.62L378.79,299Zm13.28-93.57a13.59,13.59,0,0,1,13.56-13.56,13.5,13.5,0,0,1,9.85,3.86,13,13,0,0,1,3.92,9.7,13.64,13.64,0,0,1-13.77,13.78,13,13,0,0,1-9.6-4A13.41,13.41,0,0,1,366.52,205.41Z"/><path class="cls-1" d="M453.19,232.18l-7.42,16.2a42.65,42.65,0,0,0-9.06-5.1,22.61,22.61,0,0,0-8.21-1.61,9.74,9.74,0,0,0-5.68,1.57,4.59,4.59,0,0,0-2.24,3.86q0,3.27,7.42,6.13,3.28,1.22,5.14,2.07,10.35,4.5,14.49,9.32a17.79,17.79,0,0,1,4.14,12A22,22,0,0,1,443,294.88q-8.79,6.89-23.41,6.89a56.7,56.7,0,0,1-15.81-2.18,57.52,57.52,0,0,1-14.6-6.6l8.49-17.27a75.71,75.71,0,0,0,12.21,6.35,26.29,26.29,0,0,0,9.28,1.85,10,10,0,0,0,6.06-1.67,5.13,5.13,0,0,0,2.29-4.32q0-4.06-10.49-8.35l-4.86-2q-8.34-3.7-11.84-8.07a16.7,16.7,0,0,1-3.5-10.84q0-10.35,8.63-17.2t22.2-6.86a46.68,46.68,0,0,1,25.55,7.57Z"/><path class="cls-1" d="M455.08,299l17.7-110.62h25l-6.42,38.82c-.29,1.91-.61,3.77-1,5.61s-.77,3.62-1.25,5.38a42.53,42.53,0,0,1,11.78-10.34,26,26,0,0,1,12.78-3.22q11.21,0,17.38,6t6.17,16.88a95.89,95.89,0,0,1-1.29,12.35c0,.53-.09.95-.14,1.29l-6,37.82H504.33l6-38.18c.19-1.09.35-2.17.47-3.21a26.66,26.66,0,0,0,.17-2.71q0-4.71-2.49-7.14t-7.36-2.43a12.48,12.48,0,0,0-10.38,4.78q-3.75,4.78-5.39,15.28L480.2,299Z"/><path class="cls-1" d="M640.54,224.11A45.93,45.93,0,0,0,625.23,211a42.86,42.86,0,0,0-34.48-1.33,38,38,0,0,0-12.88,8.71A46,46,0,0,0,568.23,233a44.94,44.94,0,0,0-3.35,17.12q0,16.5,10,26.59t26.41,10.1q13,0,21.91-7.24a27.83,27.83,0,0,0,10.35-18.95h-27l1.79-14.85h44.6q0,25.9-14.13,40.86t-38.4,15q-23.4,0-37.58-13.92t-14.16-37a63.49,63.49,0,0,1,4.46-24,53.09,53.09,0,0,1,12.81-19A55.23,55.23,0,0,1,584.47,196a62.78,62.78,0,0,1,22.66-4q14.42,0,25,5t20,16.2Z"/><path class="cls-1" d="M709.58,278.21l11.07,8.64A38.87,38.87,0,0,1,707.8,298.2a34.26,34.26,0,0,1-15.92,3.57q-15.06,0-24.34-9.1t-9.27-23.95q0-17.42,10.67-28.58T696.09,229q13.78,0,21.95,8.53t8.17,22.87c0,.81,0,1.85-.1,3.11s-.18,2.77-.32,4.53H674.18q0,9.21,4.64,14.67a15.39,15.39,0,0,0,12.35,5.46,21,21,0,0,0,10.17-2.61A24.53,24.53,0,0,0,709.58,278.21Zm-34-21.19h34.9q-.21-6.85-4.25-10.82t-10.81-4a21.24,21.24,0,0,0-13.06,4A17.45,17.45,0,0,0,675.54,257Z"/><path class="cls-1" d="M783.41,278.21l11.07,8.64a38.87,38.87,0,0,1-12.85,11.35,34.26,34.26,0,0,1-15.92,3.57q-15.06,0-24.34-9.1t-9.27-23.95q0-17.42,10.67-28.58T769.92,229q13.79,0,22,8.53T800,260.37c0,.81,0,1.85-.1,3.11s-.18,2.77-.33,4.53H748q0,9.21,4.64,14.67A15.39,15.39,0,0,0,765,288.14a21,21,0,0,0,10.17-2.61A24.53,24.53,0,0,0,783.41,278.21Zm-34-21.19h34.9q-.21-6.85-4.25-10.82t-10.81-4a21.24,21.24,0,0,0-13.06,4A17.45,17.45,0,0,0,749.37,257Z"/></g></g></svg>