<?xml version="1.0"?>
<svg xmlns="http://www.w3.org/2000/svg" xmlns:xlink="http://www.w3.org/1999/xlink" version="1.1" id="Capa_1" x="0px" y="0px" viewBox="0 0 512 512" style="enable-background:new 0 0 512 512;" xml:space="preserve" width="512px" height="512px"><g><g>
	<g>
		<path d="M0,58.5v200h60v30h392v-30h60v-200H0z M362,118.5c11.046,0,20,8.954,20,20c0,11.046-8.954,20-20,20    c-11.046,0-20-8.954-20-20S350.954,118.5,362,118.5z M422,258.5H90v-30h332V258.5z M432,158.5c-11.046,0-20-8.954-20-20    s8.954-20,20-20c11.046,0,20,8.954,20,20C452,149.546,443.046,158.5,432,158.5z" data-original="#000000" class="active-path" data-old_color="#000000" fill="#FFFFFF"/>
	</g>
</g><g>
	<g>
		<path d="M241,318.5v60c0,24.813-20.187,45-45,45v30c41.355,0,75-33.645,75-75v-60H241z" data-original="#000000" class="active-path" data-old_color="#000000" fill="#FFFFFF"/>
	</g>
</g><g>
	<g>
		<path d="M331,318.5v60c0,24.813-20.187,45-45,45v30c41.355,0,75-33.645,75-75v-60H331z" data-original="#000000" class="active-path" data-old_color="#000000" fill="#FFFFFF"/>
	</g>
</g><g>
	<g>
		<path d="M151,318.5v60c0,24.813-20.187,45-45,45v30c41.355,0,75-33.645,75-75v-60H151z" data-original="#000000" class="active-path" data-old_color="#000000" fill="#FFFFFF"/>
	</g>
</g></g> </svg>
