<?xml version="1.0"?>
<svg xmlns="http://www.w3.org/2000/svg" xmlns:xlink="http://www.w3.org/1999/xlink" xmlns:svgjs="http://svgjs.com/svgjs" version="1.1" width="512" height="512" x="0" y="0" viewBox="0 0 512 512" style="enable-background:new 0 0 512 512" xml:space="preserve" class=""><g><path xmlns="http://www.w3.org/2000/svg" d="m406 180c-8.496094 0-16.644531 1.289062-24.5625 3.203125l-20.4375-51.097656v-12.105469h60c16.570312 0 30-13.433594 30-30v-15c0-8.285156-6.714844-15-15-15h-75v-15c0-24.8125-20.1875-45-45-45h-30c-8.289062 0-15 6.710938-15 15s6.710938 15 15 15h30c8.277344 0 15 6.722656 15 15v75h-150v-30h15c8.289062 0 15-6.710938 15-15s-6.710938-15-15-15h-60c-8.289062 0-15 6.710938-15 15s6.710938 15 15 15h15v41.722656l-23.570312 50.507813c-6.921876-1.445313-14.082032-2.230469-21.429688-2.230469-57.890625 0-106 47.109375-106 105s48.109375 105 106 105c47.398438 0 87.097656-31.78125 100.105469-75h34.894531c16.570312 0 30-13.433594 30-30 0-9.597656-4.796875-17.757812-11.808594-23.25l82.1875-97.917969 12.277344 30.691407c-31.316406 18.199218-52.65625 51.730468-52.65625 90.476562 0 57.890625 47.109375 105 105 105s106-47.109375 106-105-48.109375-105-106-105zm-300 180c-41.351562 0-76-33.648438-76-75s34.648438-75 76-75c2.769531 0 5.394531.523438 8.089844.816406l-20.621094 44.183594h-2.46875c-16.570312 0-30 13.429688-30 30 0 16.566406 13.429688 29.988281 30 29.988281h83.644531c-11.609375 26.441407-37.96875 45.011719-68.644531 45.011719zm20.628906-105 16.417969-34.8125c13.894531 7.976562 25.109375 20.039062 31.597656 34.8125zm99.070313 0h-19.59375c-8.035157-26.699219-26.234375-48.746094-50.300781-61.855469l20.347656-43.144531h137.675781zm180.300781 105c-41.351562 0-75-33.648438-75-75 0-26.136719 13.484375-49.136719 33.816406-62.566406l11.578125 28.945312c-9.359375 8.253906-15.394531 20.191406-15.394531 33.621094 0 24.8125 20.1875 45 45 45s45-20.1875 45-45-20.1875-45-45-45c-.609375 0-1.171875.15625-1.773438.179688l-11.53125-28.835938c4.332032-.78125 8.75-1.34375 13.304688-1.34375 41.351562 0 76 33.648438 76 75s-34.648438 75-76 75zm0 0" fill="#ffffff" data-original="#000000" style=""/></g></svg>
