<?xml version="1.0"?>
<svg xmlns="http://www.w3.org/2000/svg" xmlns:xlink="http://www.w3.org/1999/xlink" version="1.1" id="Capa_1" x="0px" y="0px" viewBox="0 0 512 512" style="enable-background:new 0 0 512 512;" xml:space="preserve" width="512px" height="512px"><g><g>
	<g>
		<path d="M422,332c-19.406,0-37.277,6.313-51.991,16.798l-13.326-13.326c-33.889-46.329-33.889-112.614,0-158.943l13.326-13.327    C384.723,173.687,402.594,180,422,180c49.629,0,90-40.371,90-90c0-49.629-40.371-90-90-90c-49.629,0-90,40.371-90,90    c0,19.406,6.313,37.277,16.798,51.991l-13.328,13.328c-46.344,33.904-112.596,33.904-158.94,0l-13.328-13.328    C173.687,127.277,180,109.406,180,90c0-49.629-40.371-90-90-90C40.371,0,0,40.371,0,90c0,49.629,40.371,90,90,90    c19.406,0,37.277-6.313,51.991-16.798l13.326,13.326c33.889,46.329,33.889,112.614,0,158.943l-13.326,13.326    C127.277,338.313,109.406,332,90,332c-49.629,0-90,40.371-90,90c0,49.629,40.371,90,90,90s90-40.371,90-90    c0-19.406-6.313-37.277-16.798-51.991l13.328-13.328c46.344-33.904,112.596-33.904,158.94,0l13.328,13.328    C338.313,384.723,332,402.594,332,422c0,49.629,40.371,90,90,90c49.629,0,90-40.371,90-90C512,372.371,471.629,332,422,332z     M422,30c33.091,0,60,26.909,60,60s-26.909,60-60,60c-11.094,0-21.367-3.232-30.289-8.5L422,111.211l4.395,4.395    c5.859,5.859,15.352,5.859,21.211,0c5.859-5.859,5.859-15.352,0-21.211l-30-30c-5.859-5.859-15.352-5.859-21.211,0    c-5.859,5.859-5.859,15.352,0,21.211L400.789,90L370.5,120.289c-5.268-8.923-8.5-19.195-8.5-30.289C362,56.909,388.909,30,422,30z     M141.5,120.289L111.211,90l4.395-4.395c5.859-5.859,5.859-15.352,0-21.211s-15.352-5.859-21.211,0l-30,30    c-5.859,5.859-5.859,15.352,0,21.211s15.352,5.859,21.211,0L90,111.211l30.289,30.289c-8.923,5.268-19.195,8.5-30.289,8.5    c-33.091,0-60-26.909-60-60s26.909-60,60-60s60,26.909,60,60C150,101.094,146.768,111.367,141.5,120.289z M90,482    c-33.091,0-60-26.909-60-60s26.909-60,60-60c11.094,0,21.367,3.232,30.289,8.5L90,400.789l-4.395-4.395    c-5.859-5.859-15.352-5.859-21.211,0c-5.859,5.859-5.859,15.352,0,21.211l30,30c5.859,5.859,15.352,5.859,21.211,0    c5.859-5.859,5.859-15.352,0-21.211L111.211,422l30.289-30.289c5.268,8.923,8.5,19.195,8.5,30.289C150,455.091,123.091,482,90,482    z M422,482c-33.091,0-60-26.909-60-60c0-11.094,3.232-21.367,8.5-30.289L400.789,422l-4.395,4.395    c-5.859,5.859-5.859,15.352,0,21.211c2.93,2.93,6.768,4.395,10.605,4.395c3.837,0,7.676-1.465,10.605-4.395l30-30    c5.859-5.859,5.859-15.352,0-21.211s-15.352-5.859-21.211,0L422,400.789L391.711,370.5c8.923-5.268,19.195-8.5,30.289-8.5    c33.091,0,60,26.909,60,60S455.091,482,422,482z" data-original="#000000" class="active-path" data-old_color="#000000" fill="#FFFFFF"/>
	</g>
</g></g> </svg>
