<?xml version="1.0"?>
<svg xmlns="http://www.w3.org/2000/svg" xmlns:xlink="http://www.w3.org/1999/xlink" version="1.1" id="Capa_1" x="0px" y="0px" viewBox="0 0 477.867 477.867" style="enable-background:new 0 0 477.867 477.867;" xml:space="preserve" width="512px" height="512px" class=""><g><g>
	<g>
		<path d="M238.933,0C107.036,0.151,0.151,107.036,0,238.933v187.733c0,28.277,22.923,51.2,51.2,51.2h68.267    c9.426,0,17.067-7.641,17.067-17.067V290.133c0-9.426-7.641-17.067-17.067-17.067H51.2c-5.828,0.062-11.602,1.13-17.067,3.157    v-37.291c0-113.108,91.692-204.8,204.8-204.8s204.8,91.692,204.8,204.8v37.291c-5.465-2.027-11.239-3.095-17.067-3.157H358.4    c-9.426,0-17.067,7.641-17.067,17.067V460.8c0,9.426,7.641,17.067,17.067,17.067h68.267c28.277,0,51.2-22.923,51.2-51.2V238.933    C477.716,107.036,370.83,0.151,238.933,0z" data-original="#000000" class="active-path" data-old_color="#000000" fill="#FFFFFF"/>
	</g>
</g></g> </svg>
