<?xml version="1.0"?>
<svg xmlns="http://www.w3.org/2000/svg" xmlns:xlink="http://www.w3.org/1999/xlink" xmlns:svgjs="http://svgjs.com/svgjs" version="1.1" width="512" height="512" x="0" y="0" viewBox="0 0 512 512" style="enable-background:new 0 0 512 512" xml:space="preserve" class=""><g>
<g xmlns="http://www.w3.org/2000/svg">
	<g>
		<g>
			<path d="M384,0H128c-23.531,0-42.667,19.135-42.667,42.667v96c0,5.896,4.771,10.667,10.667,10.667h320     c5.896,0,10.667-4.771,10.667-10.667v-96C426.667,19.135,407.531,0,384,0z M202.667,106.667h-64     c-4.313,0-8.208-2.594-9.854-6.583c-1.656-3.99-0.74-8.573,2.313-11.625l10.667-10.667c4.167-4.167,10.917-4.167,15.083,0     c2.083,2.083,3.125,4.813,3.125,7.542h42.667c5.896,0,10.667,4.771,10.667,10.667S208.563,106.667,202.667,106.667z" fill="#ffffff" data-original="#000000" style="" class=""/>
			<path d="M416,170.667H96c-5.896,0-10.667,4.771-10.667,10.667V448c0,23.531,19.135,42.667,42.667,42.667v10.667     c0,5.896,4.771,10.667,10.667,10.667H160c5.896,0,10.667-4.771,10.667-10.667v-10.667h170.667v10.667     c0,5.896,4.771,10.667,10.667,10.667h21.333c5.896,0,10.667-4.771,10.667-10.667v-10.667c23.531,0,42.667-19.135,42.667-42.667     V181.333C426.667,175.438,421.896,170.667,416,170.667z M202.667,234.667h-64c-4.313,0-8.208-2.594-9.854-6.583     c-1.656-3.99-0.74-8.573,2.313-11.625l10.667-10.667c4.167-4.167,10.917-4.167,15.083,0c2.083,2.083,3.125,4.813,3.125,7.542     h42.667c5.896,0,10.667,4.771,10.667,10.667S208.563,234.667,202.667,234.667z" fill="#ffffff" data-original="#000000" style="" class=""/>
		</g>
	</g>
</g>
<g xmlns="http://www.w3.org/2000/svg">
</g>
<g xmlns="http://www.w3.org/2000/svg">
</g>
<g xmlns="http://www.w3.org/2000/svg">
</g>
<g xmlns="http://www.w3.org/2000/svg">
</g>
<g xmlns="http://www.w3.org/2000/svg">
</g>
<g xmlns="http://www.w3.org/2000/svg">
</g>
<g xmlns="http://www.w3.org/2000/svg">
</g>
<g xmlns="http://www.w3.org/2000/svg">
</g>
<g xmlns="http://www.w3.org/2000/svg">
</g>
<g xmlns="http://www.w3.org/2000/svg">
</g>
<g xmlns="http://www.w3.org/2000/svg">
</g>
<g xmlns="http://www.w3.org/2000/svg">
</g>
<g xmlns="http://www.w3.org/2000/svg">
</g>
<g xmlns="http://www.w3.org/2000/svg">
</g>
<g xmlns="http://www.w3.org/2000/svg">
</g>
</g></svg>
