<?xml version="1.0"?>
<svg xmlns="http://www.w3.org/2000/svg" id="Capa_1" enable-background="new 0 0 512 512" height="512px" viewBox="0 0 512 512" width="512px"><g><g><path d="m355.954 106.961-89.578 89.578-8.511 42.551 13.506 13.505 36.592-7.318 93.153-93.154z" data-original="#000000" class="active-path" data-old_color="#000000" fill="#FFFFFF"/><path d="m261.511 285.162-36.212-36.212 12.323-61.614c3.304-16.519-6.21-32.914-22.192-38.241-17.18-4.217-32.18 2.033-39.79 15.514l-53.878 97.348-82.025 34.503c-7.746 3.258-14.786 7.99-20.728 13.932-25.345 25.345-25.345 66.438 0 91.784l89.276 89.276c12.673 12.673 29.282 19.009 45.892 19.009 16.609 0 33.219-6.337 45.892-19.009 5.942-5.942 10.674-12.982 13.932-20.728l34.503-82.026 97.348-53.878c14.082-7.794 20.604-24.521 15.514-39.789-4.617-13.851-17.553-22.481-31.668-22.845-11.948-.309-68.187 12.976-68.187 12.976zm-117.421 131.156-49.947-49.947 21.213-21.213 49.947 49.947zm49.947-49.947-49.947-49.947 21.213-21.213 49.947 49.947z" data-original="#000000" class="active-path" data-old_color="#000000" fill="#FFFFFF"/><path d="m503.487 10.053c-8.634-8.634-21.745-10.951-32.816-5.799l-83.205 38.723-10.325 42.745 45.206 45.206 42.745-10.326 15.525-46.575 22.87-22.87c11.351-11.35 11.351-29.753 0-41.104z" data-original="#000000" class="active-path" data-old_color="#000000" fill="#FFFFFF"/></g></g> </svg>
