<?xml version="1.0"?>
<svg xmlns="http://www.w3.org/2000/svg" id="Capa_1" enable-background="new 0 0 512 512" height="512px" viewBox="0 0 512 512" width="512px" class=""><g><g><path d="m92.649 134.58h144.064v94.761h-144.064z" data-original="#000000" class="active-path" data-old_color="#000000" fill="#FFFFFF"/><path d="m475.246 48.852h-438.492c-20.299 0-36.754 16.459-36.754 36.762v203.535h512v-203.535c0-20.303-16.456-36.762-36.754-36.762zm-208.539 195.489c0 8.284-6.714 15-14.997 15h-174.058c-8.282 0-14.997-6.716-14.997-15v-124.761c0-8.284 6.714-15 14.997-15h174.058c8.282 0 14.997 6.716 14.997 15zm180.577-17.943c0 8.284-6.714 15-14.997 15s-14.997-6.716-14.997-15v-55.99c0-7.963-6.477-14.442-14.439-14.442s-14.439 6.479-14.439 14.442v26.547c0 24.505-19.932 44.442-44.433 44.442-24.5 0-44.432-19.937-44.432-44.442v-55.989c0-8.284 6.714-15 14.997-15 8.282 0 14.997 6.716 14.997 15v55.989c0 7.963 6.477 14.442 14.439 14.442s14.439-6.479 14.439-14.442v-26.547c0-24.505 19.932-44.442 44.433-44.442 24.5 0 44.432 19.937 44.432 44.442z" data-original="#000000" class="active-path" data-old_color="#000000" fill="#FFFFFF"/><path d="m0 364.767c0 20.303 16.455 36.762 36.754 36.762h18.173v22.277c0 21.728 17.61 39.342 39.333 39.342h4.914c21.723 0 39.333-17.614 39.333-39.342v-22.276h235.093v22.277c0 21.728 17.61 39.342 39.333 39.342h4.914c21.723 0 39.333-17.614 39.333-39.342v-22.277h18.065c20.299 0 36.754-16.459 36.754-36.762v-45.619h-511.999z" data-original="#000000" class="active-path" data-old_color="#000000" fill="#FFFFFF"/></g></g> </svg>
