<?xml version="1.0"?>
<svg xmlns="http://www.w3.org/2000/svg" xmlns:xlink="http://www.w3.org/1999/xlink" version="1.1" id="Capa_1" x="0px" y="0px" viewBox="0 0 512 512" style="enable-background:new 0 0 512 512;" xml:space="preserve" width="512px" height="512px"><g><g>
	<g>
		<path d="M394.667,0H117.333C87.936,0,64,23.936,64,53.333v405.333C64,488.064,87.936,512,117.333,512h277.333    C424.064,512,448,488.064,448,458.667V53.333C448,23.936,424.064,0,394.667,0z M256,480c-11.755,0-21.333-9.579-21.333-21.333    s9.579-21.333,21.333-21.333s21.333,9.579,21.333,21.333S267.755,480,256,480z M405.333,416c0,5.888-4.779,10.667-10.667,10.667    H117.333c-5.888,0-10.667-4.779-10.667-10.667V53.333c0-5.888,4.779-10.667,10.667-10.667h277.333    c5.888,0,10.667,4.779,10.667,10.667V416z" data-original="#000000" class="active-path" data-old_color="#000000" fill="#FFFFFF"/>
	</g>
</g></g> </svg>
