<?xml version="1.0"?>
<svg xmlns="http://www.w3.org/2000/svg" id="Capa_1" enable-background="new 0 0 512 512" height="512px" viewBox="0 0 512 512" width="512px"><g><g><path id="XMLID_1090_" d="m503.229 341.671h-480.379c-3.759 0-7.101 2.368-8.307 5.886l-14.072 41.056c-1.926 5.62 2.303 11.448 8.307 11.448h494.452c4.844 0 8.771-3.88 8.771-8.667v-41.056c-.001-4.786-3.928-8.667-8.772-8.667z" data-original="#000000" class="active-path" data-old_color="#000000" fill="#FFFFFF"/><path id="XMLID_1088_" d="m470.185 146.328c-2.898-19.737-20.146-34.389-40.483-34.389h-82.363c-131.935 0-250.272 79.354-298.204 199.732h444.699zm-90.844 149.865c-8.383 0-15.179-6.716-15.179-15s6.796-15 15.179-15 15.178 6.716 15.178 15-6.795 15-15.178 15zm31.537-77.021c0 7.229-5.93 13.088-13.244 13.088h-193.269c-2.516 0-4.113-2.695-2.855-4.849 26.991-46.239 68.555-62.742 107.255-62.742h88.422c7.561 0 13.691 6.01 13.691 13.424zm27.753 77.021c-8.383 0-15.179-6.716-15.179-15s6.796-15 15.179-15 15.178 6.716 15.178 15-6.796 15-15.178 15z" data-original="#000000" class="active-path" data-old_color="#000000" fill="#FFFFFF"/></g></g> </svg>
