<?xml version="1.0"?>
<svg xmlns="http://www.w3.org/2000/svg" xmlns:xlink="http://www.w3.org/1999/xlink" xmlns:svgjs="http://svgjs.com/svgjs" version="1.1" width="512" height="512" x="0" y="0" viewBox="0 0 97.385 97.385" style="enable-background:new 0 0 512 512" xml:space="preserve" class=""><g>
<g xmlns="http://www.w3.org/2000/svg">
	<g>
		<path d="M97.265,71.261c-0.093-0.108-0.23-0.172-0.374-0.172H0.494c-0.144,0-0.28,0.063-0.374,0.172    c-0.094,0.108-0.136,0.253-0.115,0.396c0.014,0.09,1.468,9.016,12.753,9.016h71.869c11.284,0,12.738-8.926,12.753-9.016    C97.4,71.514,97.358,71.369,97.265,71.261z M55.942,77.547h-14.5v-3.334h14.5V77.547z" fill="#ea2027" data-original="#000000" style="" class=""/>
		<path d="M10.507,67.619h76.37c1.104,0,2-0.896,2-2V18.713c0-1.104-0.896-2-2-2h-76.37c-1.104,0-2,0.896-2,2v46.906    C8.507,66.723,9.403,67.619,10.507,67.619z M15.507,23.713h66.37v36.906h-66.37V23.713z" fill="#ea2027" data-original="#000000" style="" class=""/>
	</g>
</g>
<g xmlns="http://www.w3.org/2000/svg">
</g>
<g xmlns="http://www.w3.org/2000/svg">
</g>
<g xmlns="http://www.w3.org/2000/svg">
</g>
<g xmlns="http://www.w3.org/2000/svg">
</g>
<g xmlns="http://www.w3.org/2000/svg">
</g>
<g xmlns="http://www.w3.org/2000/svg">
</g>
<g xmlns="http://www.w3.org/2000/svg">
</g>
<g xmlns="http://www.w3.org/2000/svg">
</g>
<g xmlns="http://www.w3.org/2000/svg">
</g>
<g xmlns="http://www.w3.org/2000/svg">
</g>
<g xmlns="http://www.w3.org/2000/svg">
</g>
<g xmlns="http://www.w3.org/2000/svg">
</g>
<g xmlns="http://www.w3.org/2000/svg">
</g>
<g xmlns="http://www.w3.org/2000/svg">
</g>
<g xmlns="http://www.w3.org/2000/svg">
</g>
</g></svg>
