<svg xmlns="http://www.w3.org/2000/svg" x="0px" y="0px"
width="120" height="120"
viewBox="0 0 172 172"
style=" fill:#000000;"><g fill="#ea2027" fill-rule="nonzero" stroke="none" stroke-width="1" stroke-linecap="butt" stroke-linejoin="miter" stroke-miterlimit="10" stroke-dasharray="" stroke-dashoffset="0" font-family="none" font-weight="none" font-size="none" text-anchor="none" style="mix-blend-mode: normal"><g transform="scale(0.33594,0.33594)"><path d="M67,68c-12.15026,0 -22,9.84974 -22,22v263c0,12.15026 9.84974,22 22,22h377c12.15026,0 22,-9.84974 22,-22v-263c0,-12.15026 -9.84974,-22 -22,-22zM75,92h357c4.41828,0 8,3.58172 8,8v243c0,4.41828 -3.58172,8 -8,8h-357c-4.41828,0 -8,-3.58172 -8,-8v-243c0,-4.41828 3.58172,-8 8,-8zM83,108v227h340.99805v-227zM204,391v37h-64.45703c-4.41828,0 -8,3.58172 -8,8c0,4.41828 3.58172,8 8,8h232.40039c4.41828,0 8,-3.58172 8,-8c0,-4.41828 -3.58172,-8 -8,-8h-63.94336v-37z"></path></g></g></svg>