<?xml version="1.0"?>
<svg xmlns="http://www.w3.org/2000/svg" id="Glyph" enable-background="new 0 0 64 64" height="512px" viewBox="0 0 64 64" width="512px"><g><path d="m2 48h9v14h-9z" data-original="#000000" class="active-path" data-old_color="#000000" fill="#FFFFFF"/><path d="m48 2c-3.66 0-5.87 3.07-7 5.34-1.13-2.27-3.34-5.34-7-5.34-2.09 0-3.72 1.52-3.72 3.46 0 1.5.97 2.92 2.66 3.89 1.9 1.1 4.61 1.65 8.06 1.65s6.17-.55 8.06-1.65c1.69-.97 2.66-2.39 2.66-3.89 0-1.94-1.63-3.46-3.72-3.46zm-14.06 5.62c-1.05-.61-1.66-1.39-1.66-2.16 0-.83.74-1.46 1.72-1.46 2.96 0 4.75 3.12 5.55 4.96-2.95-.16-4.66-.79-5.61-1.34zm14.12 0c-.94.55-2.66 1.18-5.61 1.34.79-1.84 2.57-4.96 5.55-4.96.98 0 1.72.63 1.72 1.46 0 .77-.6 1.55-1.66 2.16z" data-original="#000000" class="active-path" data-old_color="#000000" fill="#FFFFFF"/><path d="m36.5 44c3.032 0 5.5 2.468 5.5 5.5 0 .52-.072 1.023-.208 1.5h2.769l11.973-5.525c.67-.311 1.418-.475 2.16-.475h.151c.053 0 .102.014.155.016v-35.016h-36v34zm-10.423-20.788 9.149 1.664 4.158 13.307zm14.923 13.435-3.645-11.662 7.286.012zm13.505 4.54c-2.116.54-3.778 2.202-4.318 4.318-.051.201-.322.201-.374 0-.54-2.116-2.202-3.778-4.318-4.318-.201-.051-.201-.322 0-.374 2.116-.54 3.778-2.202 4.318-4.318.051-.201.322-.201.374 0 .54 2.116 2.202 3.778 4.318 4.318.201.051.201.323 0 .374zm-11.89-3.004 4.158-13.307 9.149-1.664zm13.525-17.043-8.458 1.538 3.076-6.92zm-7.235-6.14-3.005 6.762-3.756-6.762zm-4.605 8h-6.6l3.3-5.94zm-4.444-8-3.756 6.762-3.005-6.762zm-8.614.758 3.076 6.92-8.458-1.538z" data-original="#000000" class="active-path" data-old_color="#000000" fill="#FFFFFF"/><path d="m58.845 47h-.152c-.457 0-.908.099-1.322.29l-12.371 5.71h-8.5c1.933 0 3.5-1.567 3.5-3.5s-1.567-3.5-3.5-3.5h-13.5l-4 4h-6v11h33l14.392-8.095c.993-.559 1.608-1.61 1.608-2.75 0-1.743-1.412-3.155-3.155-3.155zm-22.845 8h-7c-.552 0-1-.448-1-1s.448-1 1-1h7c.552 0 1 .448 1 1s-.448 1-1 1z" data-original="#000000" class="active-path" data-old_color="#000000" fill="#FFFFFF"/></g> </svg>
