<svg xmlns="http://www.w3.org/2000/svg" x="0px" y="0px"
width="120" height="120"
viewBox="0 0 172 172"
style=" fill:#000000;"><g transform="translate(0,0) scale(1,1)"><g fill="none" fill-rule="nonzero" stroke="none" stroke-width="1" stroke-linecap="butt" stroke-linejoin="miter" stroke-miterlimit="10" stroke-dasharray="" stroke-dashoffset="0" font-family="none" font-weight="none" font-size="none" text-anchor="none" style="mix-blend-mode: normal"><path d="M0,172v-172h172v172z" fill="none"></path><g fill="#ea2027"><path d="M41.925,0c-1.58312,0 -2.86667,1.28355 -2.86667,2.86667v30.1c0,1.58312 1.28355,2.86667 2.86667,2.86667h88.15c1.58312,0 2.86667,-1.28355 2.86667,-2.86667v-30.1c0,-1.58312 -1.28355,-2.86667 -2.86667,-2.86667zM27.59167,18.63333c-1.58312,0 -2.86667,1.28355 -2.86667,2.86667v11.46667c0,1.58312 1.28355,2.86667 2.86667,2.86667h2.86667c1.58312,0 2.86667,-1.28355 2.86667,-2.86667v-11.46667c0,-1.58312 -1.28355,-2.86667 -2.86667,-2.86667zM141.54167,18.63333c-1.58312,0 -2.86667,1.28355 -2.86667,2.86667v11.46667c0,1.58312 1.28355,2.86667 2.86667,2.86667h2.86667c1.58312,0 2.86667,-1.28355 2.86667,-2.86667v-11.46667c0,-1.58312 -1.28355,-2.86667 -2.86667,-2.86667zM17.2,41.56667c-7.91594,0 -14.33333,6.41739 -14.33333,14.33333v63.78333c0,7.91594 6.41739,14.33333 14.33333,14.33333h3.94167c1.58312,0 2.86667,-1.28355 2.86667,-2.86667v-19.70833c0,-1.58312 1.28355,-2.86667 2.86667,-2.86667h118.25c1.58312,0 2.86667,1.28355 2.86667,2.86667v19.70833c0,1.58312 1.28355,2.86667 2.86667,2.86667h3.94167c7.91594,0 14.33333,-6.41739 14.33333,-14.33333v-63.78333c0,-7.91594 -6.41739,-14.33333 -14.33333,-14.33333zM28.66667,60.55833h7.88333c1.58383,0 2.86667,1.28283 2.86667,2.86667c0,1.58383 -1.28283,2.86667 -2.86667,2.86667h-7.88333c-1.58383,0 -2.86667,-1.28283 -2.86667,-2.86667c0,-1.58383 1.28283,-2.86667 2.86667,-2.86667zM114.82274,60.56183c0.31494,0.01673 0.63243,0.08646 0.94063,0.21486c1.32261,0.55147 1.9824,1.95513 1.71258,3.2075c-0.31748,1.6168 -1.91256,2.56434 -3.36847,2.25008c-1.59781,-0.31283 -2.56792,-1.89286 -2.25008,-3.36847c0.28532,-1.45398 1.6006,-2.37647 2.96535,-2.30397zM143.48941,60.56183c0.31494,0.01673 0.63243,0.08646 0.94062,0.21486c1.33981,0.55864 1.97846,1.97269 1.71258,3.2075c-0.31677,1.61357 -1.90934,2.56505 -3.36847,2.25008c-1.60748,-0.31462 -2.56577,-1.90253 -2.25008,-3.36847c0.28532,-1.45398 1.6006,-2.37647 2.96535,-2.30397zM129.0028,60.56673c1.07908,0.00206 2.15728,0.59107 2.64551,1.76157c0.4515,1.08324 0.18223,2.31724 -0.62008,3.12492c-0.97073,0.97073 -2.50246,1.10805 -3.61903,0.35483c-1.13807,-0.75035 -1.58031,-2.22523 -1.0575,-3.47975c0.49163,-1.17874 1.57203,-1.76363 2.6511,-1.76157zM31.53333,114.30833c-0.98936,0 -1.79167,0.80231 -1.79167,1.79167v16.125c0,0.99079 0.80374,1.79167 1.79167,1.79167c0.98936,0 1.79167,-0.80231 1.79167,-1.79167v-16.125c0,-0.99079 -0.80374,-1.79167 -1.79167,-1.79167zM41.925,114.30833c-1.58312,0 -2.86667,1.28355 -2.86667,2.86667v29.88094c0,1.08503 1.16005,1.77539 2.11501,1.26047c3.90476,-2.10557 -2.13193,1.07923 10.87808,-5.86491c5.33128,-2.84553 11.57803,-3.10297 17.12861,-0.78455l15.15568,6.33102c0.81306,0.3397 1.73621,0.28724 2.50483,-0.14347c4.61067,-2.58287 12.82425,-7.18314 16.10121,-9.01852c4.945,-2.76992 10.86944,-3.33203 16.23978,-1.49772c0.83169,0.28416 1.65041,0.5688 11.8579,4.08584c0.93131,0.32071 1.90224,-0.37059 1.90224,-1.35565v-22.89344c0,-1.58312 -1.28355,-2.86667 -2.86667,-2.86667zM140.46667,114.30833c-0.98936,0 -1.79167,0.80231 -1.79167,1.79167v16.125c0,0.99079 0.80374,1.79167 1.79167,1.79167c0.98936,0 1.79167,-0.80231 1.79167,-1.79167v-16.125c0,-0.99079 -0.80374,-1.79167 -1.79167,-1.79167zM112.91629,142.00918c-2.48293,-0.02701 -4.96403,0.59321 -7.17226,1.82946l-10.82979,6.06507c-1.04275,0.58408 -0.95492,2.1119 0.14767,2.57272l5.96989,2.49504c1.45842,0.61275 2.15036,2.29 1.53761,3.752c-0.45867,1.10008 -1.52322,1.76297 -2.6448,1.76297c-0.83528,0 1.28678,0.76763 -32.95197,-13.53058c-3.96639,-1.65622 -8.42131,-1.45517 -12.22323,0.5515l-14.18496,7.64818c-0.92773,0.50023 -1.50612,1.46987 -1.50612,2.52373v11.45407c0,1.58312 1.28355,2.86667 2.86667,2.86667h88.15c1.58312,0 2.86667,-1.28355 2.86667,-2.86667v-18.94408c0,-1.22514 -0.77981,-2.31597 -1.93794,-2.71479c-6.80905,-2.34565 6.70653,2.24837 -13.67476,-4.71082c-1.43244,-0.48913 -2.92292,-0.73825 -4.41268,-0.75446z"></path></g><path d="" fill="none"></path></g></g></svg>