<?xml version="1.0"?>
<svg xmlns="http://www.w3.org/2000/svg" viewBox="0 0 512 512" width="512px" height="512px"><g><g id="solid"><path d="M73.918,201.024A91.663,91.663,0,0,1,120,279.815c0,.062,0,.123,0,.185v.432a8.056,8.056,0,0,1-.043.826,128.369,128.369,0,0,0,43.846,2.715,116.321,116.321,0,0,1,71.016,14.709A101.238,101.238,0,0,0,284.967,312h34.259a201.976,201.976,0,0,0,55.788-7.856l104.841-30.127a32.169,32.169,0,0,0-29.4-28.881l-25.413-1.955a234.613,234.613,0,0,1-29.217-4.117l-23.388,15.592A8,8,0,0,1,368,256H320a7.989,7.989,0,0,1-3.383-.751L200.336,200.985,184.758,213.1a51.74,51.74,0,0,1-81.514-26.626l-1.073-3.756A20.3,20.3,0,0,0,64,180.3a103.326,103.326,0,0,0-4.431,12.553c.133.066.267.126.4.2ZM352,280h8a8,8,0,0,1,0,16h-8a8,8,0,0,1,0-16Zm-40,0h8a8,8,0,0,1,0,16h-8a8,8,0,0,1,0-16Zm-48,0h16a8,8,0,0,1,0,16H264a8,8,0,0,1,0-16Z" data-original="#000000" class="active-path" data-old_color="#000000" fill="#FFFFFF"/><path d="M228.566,159.616l-17.854-12.109A6.861,6.861,0,0,0,200,153.185v27.792l23.05-17.928A31.674,31.674,0,0,1,228.566,159.616Z" data-original="#000000" class="active-path" data-old_color="#000000" fill="#FFFFFF"/><path d="M321.775,240h43.8l9.365-6.244a234.324,234.324,0,0,1-32.126-12.411l-.206-.1-5.659-2.882-11.3,11.3a8,8,0,0,1-11.314-11.314l7.618-7.617-16.81-8.563-11.494,11.494a8,8,0,0,1-11.314-11.314l7.816-7.816-16.81-8.562-11.692,11.692a8,8,0,0,1-11.314-11.314l8.014-8.014-8.4-4.278a16.057,16.057,0,0,0-17.084,1.627l-18.35,14.272Z" data-original="#000000" class="active-path" data-old_color="#000000" fill="#FFFFFF"/><path d="M319.226,328H284.967a117.269,117.269,0,0,1-58.087-15.426,100.425,100.425,0,0,0-61.31-12.7,144.47,144.47,0,0,1-74.549-11.556L54.5,272.089a4.009,4.009,0,0,0-3.014,4.881l4.272,17.09a8,8,0,0,1-2.1,7.6l-19.48,19.48a7,7,0,0,0,.882,10.645L74.563,360h94.355a22.111,22.111,0,0,0,9.838-2.322l25.666-12.833a8,8,0,0,1,6.549-.273l34.636,13.855a21.9,21.9,0,0,0,8.17,1.573h38.64a250.53,250.53,0,0,0,122.565-32.106l55.15-31.023a19.322,19.322,0,0,0,5.874-5.1l-96.573,27.75A217.94,217.94,0,0,1,319.226,328Z" data-original="#000000" class="active-path" data-old_color="#000000" fill="#FFFFFF"/><path d="M62.474,258.123,97.519,273.7c2.1.932,4.22,1.79,6.358,2.606a75.632,75.632,0,0,0-37.9-61.387L56.328,209.4a103.08,103.08,0,0,0,4.628,44.167Z" data-original="#000000" class="active-path" data-old_color="#000000" fill="#FFFFFF"/></g></g> </svg>
