<?xml version="1.0"?>
<svg xmlns="http://www.w3.org/2000/svg" xmlns:xlink="http://www.w3.org/1999/xlink" xmlns:svgjs="http://svgjs.com/svgjs" version="1.1" width="512" height="512" x="0" y="0" viewBox="0 0 512 512" style="enable-background:new 0 0 512 512" xml:space="preserve" class=""><g><path xmlns="http://www.w3.org/2000/svg" d="m250 392h12c5.523 0 10-4.477 10-10v-252c0-5.523-4.477-10-10-10h-12c-5.523 0-10 4.477-10 10v252c0 5.523 4.477 10 10 10z" fill="#ea2027" data-original="#000000" style="" class=""/><circle xmlns="http://www.w3.org/2000/svg" cx="96" cy="256" r="16" fill="#ea2027" data-original="#000000" style="" class=""/><path xmlns="http://www.w3.org/2000/svg" d="m136 120c-75.256 0-136.431 61.442-135.998 136.796.432 75.045 62.448 135.204 137.494 135.204h44.504c5.523 0 10-4.477 10-10v-252c0-5.523-4.477-10-10-10zm-40 200c-35.29 0-64-28.71-64-64s28.71-64 64-64 64 28.71 64 64-28.71 64-64 64z" fill="#ea2027" data-original="#000000" style="" class=""/><circle xmlns="http://www.w3.org/2000/svg" cx="416" cy="256" r="16" fill="#ea2027" data-original="#000000" style="" class=""/><path xmlns="http://www.w3.org/2000/svg" d="m374.504 120h-44.504c-5.523 0-10 4.477-10 10v252c0 5.523 4.477 10 10 10h46c75.255 0 136.431-61.442 135.998-136.796-.432-75.045-62.448-135.204-137.494-135.204zm41.496 200c-35.29 0-64-28.71-64-64s28.71-64 64-64 64 28.71 64 64-28.71 64-64 64z" fill="#ea2027" data-original="#000000" style="" class=""/></g></svg>
