<?xml version="1.0"?>
<svg xmlns="http://www.w3.org/2000/svg" id="Layer_5" enable-background="new 0 0 64 64" height="512px" viewBox="0 0 64 64" width="512px"><g><g><path d="m59 6c-1.105 0-2 .895-2 2v-1c0-2.206-1.794-4-4-4s-4 1.794-4 4v8h8v1c0 1.105.895 2 2 2s2-.895 2-2v-8c0-1.105-.895-2-2-2z" data-original="#000000" class="active-path" data-old_color="#000000" fill="#FFFFFF"/><path d="m36.111 35.611h5.778v5.778h-5.778z" transform="matrix(.707 -.707 .707 .707 -15.801 38.854)" data-original="#000000" class="active-path" data-old_color="#000000" fill="#FFFFFF"/><path d="m30.611 41.111h5.778v5.778h-5.778z" transform="matrix(.707 -.707 .707 .707 -21.301 36.576)" data-original="#000000" class="active-path" data-old_color="#000000" fill="#FFFFFF"/><path d="m25.111 46.611h5.778v5.778h-5.778z" transform="matrix(.707 -.707 .707 .707 -26.801 34.297)" data-original="#000000" class="active-path" data-old_color="#000000" fill="#FFFFFF"/><path d="m25.111 35.611h5.778v5.779h-5.778z" transform="matrix(.707 -.707 .707 .707 -19.023 31.076)" data-original="#000000" class="active-path" data-old_color="#000000" fill="#FFFFFF"/><path d="m47.111 46.611h5.778v5.778h-5.778z" transform="matrix(.707 -.707 .707 .707 -20.357 49.854)" data-original="#000000" class="active-path" data-old_color="#000000" fill="#FFFFFF"/><path d="m47.111 35.611h5.779v5.779h-5.779z" transform="matrix(.707 -.707 .707 .707 -12.579 46.632)" data-original="#000000" class="active-path" data-old_color="#000000" fill="#FFFFFF"/><path d="m36.111 46.611h5.778v5.779h-5.778z" transform="matrix(.707 -.707 .707 .707 -23.579 42.075)" data-original="#000000" class="active-path" data-old_color="#000000" fill="#FFFFFF"/><path d="m41.611 41.111h5.778v5.779h-5.778z" transform="matrix(.707 -.707 .707 .707 -18.079 44.354)" data-original="#000000" class="active-path" data-old_color="#000000" fill="#FFFFFF"/><path d="m19 49.382v-2.764c0-.764.424-1.449 1.106-1.789l.894-.447v-8.382c0-.552-.449-1-1-1h-16c-.551 0-1 .448-1 1v8.382l.895.447c.681.34 1.105 1.025 1.105 1.789v2.764c0 .764-.424 1.449-1.106 1.789l-.894.447v8.382c0 .552.449 1 1 1h3v-24h8v10.184c1.161.414 2 1.514 2 2.816s-.839 2.402-2 2.816v8.184h5c.551 0 1-.448 1-1v-8.382l-.895-.447c-.681-.34-1.105-1.025-1.105-1.789z" data-original="#000000" class="active-path" data-old_color="#000000" fill="#FFFFFF"/><path d="m49 17h8v4h-8z" data-original="#000000" class="active-path" data-old_color="#000000" fill="#FFFFFF"/><path d="m39 11h4v10h-4z" data-original="#000000" class="active-path" data-old_color="#000000" fill="#FFFFFF"/><path d="m38.576 3.208c-.081-.13-.222-.208-.376-.208h-.4c-.154 0-.294.078-.375.208l-3.621 5.792h8.391z" data-original="#000000" class="active-path" data-old_color="#000000" fill="#FFFFFF"/><path d="m33 11h4v10h-4z" data-original="#000000" class="active-path" data-old_color="#000000" fill="#FFFFFF"/><path d="m21 11h6v10h-6z" data-original="#000000" class="active-path" data-old_color="#000000" fill="#FFFFFF"/><path d="m9 61h4v-8.184c-1.161-.414-2-1.514-2-2.816s.839-2.402 2-2.816v-8.184h-4z" data-original="#000000" class="active-path" data-old_color="#000000" fill="#FFFFFF"/><path d="m24.415 3.288c-.129-.346-.7-.345-.829-.001l-2.143 5.713h5.114z" data-original="#000000" class="active-path" data-old_color="#000000" fill="#FFFFFF"/><path d="m33.414 29-4 4 4.086 4.086 4.086-4.086-4-4z" data-original="#000000" class="active-path" data-old_color="#000000" fill="#FFFFFF"/><path d="m51.414 44 6.197 6.197.48-7.692-2.591-2.591z" data-original="#000000" class="active-path" data-old_color="#000000" fill="#FFFFFF"/><path d="m36.414 59h5.172l-2.586-2.586z" data-original="#000000" class="active-path" data-old_color="#000000" fill="#FFFFFF"/><path d="m51.414 55 3.979 3.979c.956-.103 1.723-.875 1.784-1.854l.267-4.267-1.944-1.944z" data-original="#000000" class="active-path" data-old_color="#000000" fill="#FFFFFF"/><path d="m44.5 50.914-4.086 4.086 4 4h.172l4-4z" data-original="#000000" class="active-path" data-old_color="#000000" fill="#FFFFFF"/><path d="m47.414 59h5.172l-2.586-2.586z" data-original="#000000" class="active-path" data-old_color="#000000" fill="#FFFFFF"/><path d="m60 23h-42c-.551 0-1 .448-1 1v2c0 .552.449 1 1 1h42c.551 0 1-.448 1-1v-2c0-.552-.449-1-1-1z" data-original="#000000" class="active-path" data-old_color="#000000" fill="#FFFFFF"/><path d="m51.414 33 4.086 4.086 3.125-3.125.311-4.961h-3.522z" data-original="#000000" class="active-path" data-old_color="#000000" fill="#FFFFFF"/><path d="m58.258 39.843.179-2.865-1.523 1.522z" data-original="#000000" class="active-path" data-old_color="#000000" fill="#FFFFFF"/><path d="m25.414 59h5.172l-2.586-2.586z" data-original="#000000" class="active-path" data-old_color="#000000" fill="#FFFFFF"/><path d="m28 31.586 2.586-2.586h-5.172z" data-original="#000000" class="active-path" data-old_color="#000000" fill="#FFFFFF"/><path d="m39 31.586 2.586-2.586h-5.172z" data-original="#000000" class="active-path" data-old_color="#000000" fill="#FFFFFF"/><path d="m44.414 29-4 4 4.086 4.086 4.086-4.086-4-4z" data-original="#000000" class="active-path" data-old_color="#000000" fill="#FFFFFF"/><path d="m19.064 29 .25 4h.686c1.654 0 3 1.346 3 3v.586l3.586-3.586-4-4z" data-original="#000000" class="active-path" data-old_color="#000000" fill="#FFFFFF"/><path d="m23 51.414v7.172l3.586-3.586z" data-original="#000000" class="active-path" data-old_color="#000000" fill="#FFFFFF"/><path d="m23 40.414v5.204l-2 1v2.764l.136.068 5.45-5.45z" data-original="#000000" class="active-path" data-old_color="#000000" fill="#FFFFFF"/><path d="m47.414 29 2.586 2.586 2.586-2.586z" data-original="#000000" class="active-path" data-old_color="#000000" fill="#FFFFFF"/><path d="m33.5 50.914-4.086 4.086 4 4h.172l4-4z" data-original="#000000" class="active-path" data-old_color="#000000" fill="#FFFFFF"/></g></g> </svg>
