<svg xmlns="http://www.w3.org/2000/svg" x="0px" y="0px"
width="120" height="120"
viewBox="0 0 172 172"
style=" fill:#000000;"><g fill="none" fill-rule="nonzero" stroke="none" stroke-width="1" stroke-linecap="butt" stroke-linejoin="miter" stroke-miterlimit="10" stroke-dasharray="" stroke-dashoffset="0" font-family="none" font-weight="none" font-size="none" text-anchor="none" style="mix-blend-mode: normal"><path d="M0,172v-172h172v172z" fill="none"></path><g fill="#ea2027"><path d="M123.84,10.32h-75.68c-5.68406,0 -10.32,4.63594 -10.32,10.32v130.72c0,5.68406 4.63594,10.32 10.32,10.32h75.68c5.68406,0 10.32,-4.63594 10.32,-10.32v-130.72c0,-5.68406 -4.63594,-10.32 -10.32,-10.32zM86,18.92c1.90813,0 3.44,1.54531 3.44,3.44c0,1.89469 -1.53187,3.44 -3.44,3.44c-1.89469,0 -3.44,-1.54531 -3.44,-3.44c0,-1.89469 1.54531,-3.44 3.44,-3.44zM96.32,151.36h-20.64c-1.89469,0 -3.44,-1.53187 -3.44,-3.44c0,-1.90812 1.54531,-3.44 3.44,-3.44h20.64c1.90813,0 3.44,1.53188 3.44,3.44c0,1.90813 -1.53187,3.44 -3.44,3.44zM116.96,137.6h-61.92v-106.64h61.92z"></path></g></g></svg>