<?xml version="1.0"?>
<svg xmlns="http://www.w3.org/2000/svg" xmlns:xlink="http://www.w3.org/1999/xlink" xmlns:svgjs="http://svgjs.com/svgjs" version="1.1" width="512" height="512" x="0" y="0" viewBox="0 0 511.998 511.998" style="enable-background:new 0 0 512 512" xml:space="preserve" class=""><g>
<g xmlns="http://www.w3.org/2000/svg">
	<g>
		<path d="M457.274,162.266H383.78h-10.812h-90.866l78.706-139.895c4.064-7.224,1.503-16.375-5.721-20.44    c-7.225-4.064-16.375-1.503-20.44,5.721l-78.177,138.954L178.293,7.652c-4.065-7.224-13.216-9.787-20.44-5.721    c-7.224,4.065-9.786,13.216-5.721,20.44l78.706,139.895H54.723c-29.759,0-53.969,24.211-53.969,53.969v241.794    c0,29.759,24.21,53.969,53.969,53.969h318.245h10.812h73.494c29.759,0,53.969-24.211,53.969-53.969V216.236    C511.243,186.476,487.033,162.266,457.274,162.266z M409.915,211.561c20.784,0,37.694,16.91,37.694,37.695    c0,20.784-16.91,37.694-37.694,37.694c-20.785,0-37.695-16.91-37.695-37.694C372.22,228.471,389.13,211.561,409.915,211.561z     M409.915,299.643c20.784,0,37.694,16.91,37.694,37.694c0,20.785-16.91,37.695-37.694,37.695    c-20.785,0-37.695-16.91-37.695-37.695C372.22,316.552,389.13,299.643,409.915,299.643z M337.429,420.934    c0,23.838-19.393,43.231-43.231,43.231H95.318c-23.838,0-43.231-19.393-43.231-43.231V254.902    c0-23.838,19.393-43.231,43.231-43.231h198.88c23.838,0,43.231,19.393,43.231,43.231V420.934z M436.376,463.717h-52.923    c-8.289,0-15.009-6.72-15.009-15.009s6.72-15.009,15.009-15.009h52.923c8.289,0,15.009,6.72,15.009,15.009    S444.665,463.717,436.376,463.717z M436.376,418.691h-52.923c-8.289,0-15.009-6.72-15.009-15.009s6.72-15.009,15.009-15.009    h52.923c8.289,0,15.009,6.72,15.009,15.009S444.665,418.691,436.376,418.691z" fill="#ea2027" data-original="#000000" style=""/>
	</g>
</g>
<g xmlns="http://www.w3.org/2000/svg">
</g>
<g xmlns="http://www.w3.org/2000/svg">
</g>
<g xmlns="http://www.w3.org/2000/svg">
</g>
<g xmlns="http://www.w3.org/2000/svg">
</g>
<g xmlns="http://www.w3.org/2000/svg">
</g>
<g xmlns="http://www.w3.org/2000/svg">
</g>
<g xmlns="http://www.w3.org/2000/svg">
</g>
<g xmlns="http://www.w3.org/2000/svg">
</g>
<g xmlns="http://www.w3.org/2000/svg">
</g>
<g xmlns="http://www.w3.org/2000/svg">
</g>
<g xmlns="http://www.w3.org/2000/svg">
</g>
<g xmlns="http://www.w3.org/2000/svg">
</g>
<g xmlns="http://www.w3.org/2000/svg">
</g>
<g xmlns="http://www.w3.org/2000/svg">
</g>
<g xmlns="http://www.w3.org/2000/svg">
</g>
</g></svg>
