<?xml version="1.0"?>
<svg xmlns="http://www.w3.org/2000/svg" xmlns:xlink="http://www.w3.org/1999/xlink" xmlns:svgjs="http://svgjs.com/svgjs" version="1.1" width="512" height="512" x="0" y="0" viewBox="0 0 512 512" style="enable-background:new 0 0 512 512" xml:space="preserve" class=""><g><g xmlns="http://www.w3.org/2000/svg"><path d="m408 0h-304c-26.51 0-48 21.49-48 48v43c0 2.761 2.239 5 5 5h390c2.761 0 5-2.239 5-5v-43c0-26.51-21.49-48-48-48zm-88 64h-8c-8.84 0-16-7.16-16-16s7.16-16 16-16h8c8.84 0 16 7.16 16 16s-7.16 16-16 16zm64 0h-8c-8.84 0-16-7.16-16-16s7.16-16 16-16h8c8.84 0 16 7.16 16 16s-7.16 16-16 16z" fill="#ea2027" data-original="#000000" style="" class=""/><path d="m56 133v363c0 8.837 7.163 16 16 16h368c8.837 0 16-7.163 16-16v-363c0-2.761-2.239-5-5-5h-390c-2.761 0-5 2.239-5 5zm200 43c70.51 0 127.89 57.31 128 127.8.82 68.68-56.08 128.2-128 128.2-71.29 0-128.12-58.28-128-128.01 0-70.57 57.42-127.99 128-127.99z" fill="#ea2027" data-original="#000000" style="" class=""/><path d="m256 400c41.471 0 76.876-26.43 90.271-63.321 1.352-3.724-1.969-7.49-5.826-6.583-11.295 2.654-21.441 3.775-30.685 3.775-61.032 0-76.026-44.399-145.308-20.635-2.28.782-3.686 3.099-3.318 5.481 7.104 45.972 46.933 81.283 94.866 81.283z" fill="#ea2027" data-original="#000000" style="" class=""/><path d="m262.3 289.29c24.003 10.285 45.064 19.293 85.25 5.476 2.278-.783 3.684-3.099 3.316-5.48-7.104-45.974-46.933-81.286-94.866-81.286-41.461 0-76.865 26.421-90.269 63.31-1.358 3.737 1.985 7.484 5.855 6.576 41.416-9.716 67.32 1.379 90.714 11.404z" fill="#ea2027" data-original="#000000" style="" class=""/></g></g></svg>
