<?xml version="1.0"?>
<svg xmlns="http://www.w3.org/2000/svg" xmlns:xlink="http://www.w3.org/1999/xlink" version="1.1" id="Capa_1" x="0px" y="0px" viewBox="0 0 511.999 511.999" style="enable-background:new 0 0 511.999 511.999;" xml:space="preserve" width="512px" height="512px"><g><g>
	<g>
		<path d="M242.903,431.654c-31.867,0-61.321-9.874-85.072-25.668v67.448c0,21.265,17.3,38.565,38.565,38.565h93.013    c21.266,0,38.565-17.3,38.565-38.565v-67.449C304.224,421.779,274.77,431.654,242.903,431.654z" data-original="#000000" class="active-path" data-old_color="#000000" fill="#FFFFFF"/>
	</g>
</g><g>
	<g>
		<path d="M289.409,0h-93.013c-21.265,0-38.565,17.3-38.565,38.565v65.934c23.751-15.794,53.205-24.668,85.072-24.668    c31.867,0,61.321,8.874,85.073,24.669V38.565C327.975,17.3,310.675,0,289.409,0z" data-original="#000000" class="active-path" data-old_color="#000000" fill="#FFFFFF"/>
	</g>
</g><g>
	<g>
		<path d="M396.458,241.169h-11.968c-7.526-71.475-68.151-127.363-141.587-127.363c-78.508,0-142.379,63.871-142.379,142.379    s63.871,142.379,142.379,142.379c73.436,0,134.061-55.888,141.587-127.363h11.968c8.293,0,15.016-6.723,15.016-15.016    S404.751,241.169,396.458,241.169z M294.059,201.023l-38.041,62.93c-2.822,4.668-7.781,7.251-12.865,7.251    c-0.06,0-0.12-0.005-0.18-0.006c-0.024,0-0.046,0.004-0.07,0.004h-54.65c-8.293,0-15.016-6.723-15.016-15.016    c0-8.293,6.723-15.016,15.016-15.016h46.445l33.659-55.682c4.291-7.099,13.522-9.372,20.619-5.082    C296.073,184.695,298.349,193.926,294.059,201.023z" data-original="#000000" class="active-path" data-old_color="#000000" fill="#FFFFFF"/>
	</g>
</g></g> </svg>
