<?xml version="1.0"?>
<svg xmlns="http://www.w3.org/2000/svg" xmlns:xlink="http://www.w3.org/1999/xlink" xmlns:svgjs="http://svgjs.com/svgjs" version="1.1" width="512" height="512" x="0" y="0" viewBox="0 0 490.667 490.667" style="enable-background:new 0 0 512 512" xml:space="preserve" class=""><g>
<g xmlns="http://www.w3.org/2000/svg">
	<g>
		<path d="M339.285,115.883L319.829,8.768C318.891,3.691,314.475,0,309.333,0h-128c-5.141,0-9.557,3.691-10.496,8.768    l-19.456,107.115c-41.451,30.101-66.048,78.165-66.048,129.451s24.597,99.349,66.048,129.451l19.456,107.115    c0.939,5.077,5.355,8.768,10.496,8.768h128c5.141,0,9.557-3.691,10.496-8.768l19.456-107.115    c41.451-30.101,66.048-78.165,66.048-129.451S380.736,145.984,339.285,115.883z M245.333,362.667    C180.629,362.667,128,310.037,128,245.333S180.629,128,245.333,128s117.333,52.629,117.333,117.333    S310.037,362.667,245.333,362.667z" fill="#ea2027" data-original="#000000" style="" class=""/>
	</g>
</g>
<g xmlns="http://www.w3.org/2000/svg">
	<g>
		<path d="M295.552,280.469L256,240.917v-59.584c0-5.888-4.779-10.667-10.667-10.667s-10.667,4.779-10.667,10.667v64    c0,2.837,1.131,5.547,3.115,7.552l42.667,42.667c2.091,2.069,4.821,3.115,7.552,3.115c2.731,0,5.461-1.045,7.552-3.115    C299.712,291.392,299.712,284.629,295.552,280.469z" fill="#ea2027" data-original="#000000" style="" class=""/>
	</g>
</g>
<g xmlns="http://www.w3.org/2000/svg">
</g>
<g xmlns="http://www.w3.org/2000/svg">
</g>
<g xmlns="http://www.w3.org/2000/svg">
</g>
<g xmlns="http://www.w3.org/2000/svg">
</g>
<g xmlns="http://www.w3.org/2000/svg">
</g>
<g xmlns="http://www.w3.org/2000/svg">
</g>
<g xmlns="http://www.w3.org/2000/svg">
</g>
<g xmlns="http://www.w3.org/2000/svg">
</g>
<g xmlns="http://www.w3.org/2000/svg">
</g>
<g xmlns="http://www.w3.org/2000/svg">
</g>
<g xmlns="http://www.w3.org/2000/svg">
</g>
<g xmlns="http://www.w3.org/2000/svg">
</g>
<g xmlns="http://www.w3.org/2000/svg">
</g>
<g xmlns="http://www.w3.org/2000/svg">
</g>
<g xmlns="http://www.w3.org/2000/svg">
</g>
</g></svg>
