<svg xmlns="http://www.w3.org/2000/svg" width="28.111" height="28.111" viewBox="0 0 28.111 28.111"><defs><style>.a{fill:#e71f26;}</style></defs><path class="a" d="M25.1,32H3.012A3.012,3.012,0,0,0,0,35.012V57.1a3.012,3.012,0,0,0,3.012,3.012h8.612V50.554H7.671v-4.5h3.953V42.627c0-3.9,2.322-6.054,5.878-6.054a23.949,23.949,0,0,1,3.484.3V40.7H19.023a2.249,2.249,0,0,0-2.536,2.43v2.921H20.8l-.69,4.5H16.487v9.557H25.1A3.012,3.012,0,0,0,28.111,57.1V35.012A3.012,3.012,0,0,0,25.1,32Z" transform="translate(0 -32)"/></svg>