<svg width="95" height="95" viewBox="0 0 95 95" fill="none" xmlns="http://www.w3.org/2000/svg">
<path d="M31.6667 59.3749C31.6667 55.0027 28.1222 51.4583 23.75 51.4583C19.3777 51.4583 15.8333 55.0027 15.8333 59.3749V67.2916C15.8333 71.6638 19.3777 75.2083 23.75 75.2083C28.1222 75.2083 31.6667 71.6638 31.6667 67.2916V59.3749Z" stroke="#ED2737" stroke-width="2.75" stroke-linecap="round" stroke-linejoin="round"/>
<path d="M79.1667 59.3749C79.1667 55.0027 75.6223 51.4583 71.25 51.4583C66.8778 51.4583 63.3333 55.0027 63.3333 59.3749V67.2916C63.3333 71.6638 66.8778 75.2083 71.25 75.2083C75.6223 75.2083 79.1667 71.6638 79.1667 67.2916V59.3749Z" stroke="#ED2737" stroke-width="2.75" stroke-linecap="round" stroke-linejoin="round"/>
<path d="M15.8333 59.3749V47.4999C15.8333 39.1014 19.1696 31.0469 25.1083 25.1082C31.0469 19.1696 39.1015 15.8333 47.5 15.8333C55.8985 15.8333 63.9531 19.1696 69.8917 25.1082C75.8304 31.0469 79.1667 39.1014 79.1667 47.4999V59.3749" stroke="#ED2737" stroke-width="2.75" stroke-linecap="round" stroke-linejoin="round"/>
<path d="M71.25 75.2083C71.25 78.3577 68.7478 81.3781 64.2938 83.6051C59.8398 85.8321 53.7989 87.0832 47.5 87.0832" stroke="#ED2737" stroke-width="2.75" stroke-linecap="round" stroke-linejoin="round"/>
</svg>
