<svg width="95" height="95" viewBox="0 0 95 95" fill="none" xmlns="http://www.w3.org/2000/svg">
<path d="M39.5833 67.2917C54.8862 67.2917 67.2917 54.8862 67.2917 39.5833C67.2917 24.2804 54.8862 11.875 39.5833 11.875C24.2804 11.875 11.875 24.2804 11.875 39.5833C11.875 54.8862 24.2804 67.2917 39.5833 67.2917Z" stroke="#ED2737" stroke-width="2.75" stroke-linecap="round" stroke-linejoin="round"/>
<path d="M83.125 83.125L59.375 59.375" stroke="#ED2737" stroke-width="2.75" stroke-linecap="round" stroke-linejoin="round"/>
<path d="M32.6666 33.6667C32.6666 32.2081 33.3427 30.8091 34.546 29.7777C35.7494 28.7462 37.3815 28.1667 39.0833 28.1667H40.9166C42.6184 28.1667 44.2505 28.7462 45.4539 29.7777C46.6573 30.8091 47.3333 32.2081 47.3333 33.6667C47.4008 34.857 47.0797 36.0371 46.4184 37.029C45.7571 38.021 44.7913 38.7713 43.6666 39.1667C42.5419 39.6941 41.5762 40.6944 40.9149 42.017C40.2535 43.3397 39.9325 44.913 40 46.5001" stroke="#ED2737" stroke-width="2.75" stroke-linecap="round" stroke-linejoin="round"/>
<path d="M40 53.8333V53.8516" stroke="#ED2737" stroke-width="2.75" stroke-linecap="round" stroke-linejoin="round"/>
</svg>
