<svg width="95" height="95" viewBox="0 0 95 95" fill="none" xmlns="http://www.w3.org/2000/svg">
<path d="M43.5417 45.5208V41.5625C43.5417 39.9878 44.1672 38.4775 45.2807 37.3641C46.3942 36.2506 47.9044 35.625 49.4792 35.625C51.0539 35.625 52.5641 36.2506 53.6776 37.3641C54.7911 38.4775 55.4167 39.9878 55.4167 41.5625V47.5" stroke="#ED2737" stroke-width="2.75" stroke-linecap="round" stroke-linejoin="round"/>
<path d="M67.2917 47.4999V21.7708C67.2917 20.196 67.9172 18.6858 69.0307 17.5723C70.1442 16.4588 71.6544 15.8333 73.2292 15.8333C74.8039 15.8333 76.3141 16.4588 77.4276 17.5723C78.5411 18.6858 79.1667 20.196 79.1667 21.7708V63.3333C79.1667 69.6321 76.6644 75.6731 72.2105 80.127C67.7565 84.581 61.7156 87.0833 55.4167 87.0833H47.5H48.3233C44.3901 87.0839 40.5182 86.1077 37.0555 84.2423C33.5927 82.3769 30.6475 79.6807 28.4842 76.3958C28.2245 76.0006 27.9659 75.6048 27.7083 75.2083C26.4733 73.3122 22.139 65.7558 14.7012 52.5349C13.943 51.1872 13.7405 49.5969 14.1367 48.1022C14.5329 46.6075 15.4967 45.3263 16.8229 44.5312C18.2356 43.6836 19.8909 43.3323 21.526 43.5331C23.1612 43.7339 24.6823 44.4753 25.8479 45.6395L31.6667 51.4583" stroke="#ED2737" stroke-width="2.75" stroke-linecap="round" stroke-linejoin="round"/>
<path d="M55.4167 41.5625C55.4167 39.9878 56.0422 38.4775 57.1557 37.3641C58.2692 36.2506 59.7794 35.625 61.3542 35.625C62.9289 35.625 64.4391 36.2506 65.5526 37.3641C66.6661 38.4775 67.2916 39.9878 67.2916 41.5625V47.5" stroke="#ED2737" stroke-width="2.75" stroke-linecap="round" stroke-linejoin="round"/>
<path d="M31.6667 51.4583V17.8125C31.6667 16.2378 32.2922 14.7276 33.4057 13.6141C34.5192 12.5006 36.0294 11.875 37.6042 11.875C39.1789 11.875 40.6891 12.5006 41.8026 13.6141C42.9161 14.7276 43.5417 16.2378 43.5417 17.8125V47.5" stroke="#ED2737" stroke-width="2.75" stroke-linecap="round" stroke-linejoin="round"/>
</svg>
