<svg xmlns="http://www.w3.org/2000/svg" viewBox="0 0 179.56 84.24"><defs><style>.cls-1{fill:#ea2027;}</style></defs><g id="Layer_2" data-name="Layer 2"><g id="Layer_1-2" data-name="Layer 1"><path class="cls-1" d="M12.58,53.88a21.51,21.51,0,0,1-6.4,1.53C-.45,54.88,0,49.16,0,49.16c.15-5.72,5.71-5.95,5.71-5.95H37.81ZM37.05,55a6.91,6.91,0,0,0,3.35.68c5.49-.61,5.64-6.4,5.64-6.4,0-4.19-2.44-5-2.44-5-.61-.46-2.29,0-2.29,0L26.22,50.07ZM22.87,51.71S10,58.06,6.75,57.94c0,0,2.75,4.23,3.6,5.09,0,0,9.61,11-2.17,21.21,0,0,26-7.26,30.47-26ZM23,42.62c5.73-4,5-7,5-7-2.8,2.57-4.93.17-4.93.17-1.85,2.4-5.1-.17-5.1-.17C17.55,38.37,23,42.62,23,42.62ZM17.12,35.1s-6.56-4.38,6.4-14c0,0,1.07,2.48,5,5.6,0,0,4.76,4.8.38,8.35,0,0,10.25,1.07,11.43-10.33,0,0,.54-4.69-5.22-9.79L27.18,7.17S23,3.13,28.85,0c0,0-3.5-.23-6.78,3.51L16.28,9.45a70.65,70.65,0,0,0-7,7.17,12.89,12.89,0,0,0-3.62,8.65S5.91,35.67,17.12,35.1Z"/><path class="cls-1" d="M52.31,67.1,48,43.65h6.24l1.81,12.66c.1.75.18,1.41.23,2s.08,1.1.1,1.6c.19-.77.38-1.47.56-2.11s.34-1.17.48-1.59l4.17-12.53h5.78l1.7,12.66c.1.73.18,1.38.23,1.95s.08,1.1.1,1.62c.09-.44.22-.93.38-1.47s.42-1.28.76-2.23l4.73-12.53h6.5L72,67.1H65.53l-1.6-10.91c-.11-.73-.19-1.39-.24-2s-.09-1.11-.1-1.63c-.18.71-.36,1.37-.54,2s-.34,1.19-.5,1.71L59,67.1Z"/><path class="cls-1" d="M79.28,67.1l2.55-16.18h5.75L85,67.1Zm3-21a3.06,3.06,0,0,1,3-3,3,3,0,0,1,2.21.86,2.93,2.93,0,0,1,.88,2.18,3,3,0,0,1-3.09,3.09,2.91,2.91,0,0,1-2.15-.9A3,3,0,0,1,82.26,46.1Z"/><path class="cls-1" d="M101.71,52.11l-1.66,3.63a9.77,9.77,0,0,0-2-1.14,5.06,5.06,0,0,0-1.84-.36,2.19,2.19,0,0,0-1.27.35,1,1,0,0,0-.51.87c0,.49.56.95,1.67,1.37.49.19.87.34,1.15.47a9,9,0,0,1,3.25,2.09,4,4,0,0,1,.93,2.7,5,5,0,0,1-2,4.09,8.26,8.26,0,0,1-5.25,1.55,12.9,12.9,0,0,1-3.55-.49,13.15,13.15,0,0,1-3.28-1.48l1.91-3.88A17.11,17.11,0,0,0,92,63.31a6,6,0,0,0,2.08.41,2.24,2.24,0,0,0,1.36-.37,1.17,1.17,0,0,0,.51-1c0-.61-.78-1.24-2.35-1.88l-1.09-.45a7,7,0,0,1-2.66-1.81,3.77,3.77,0,0,1-.78-2.43A4.72,4.72,0,0,1,91,52a7.78,7.78,0,0,1,5-1.54,10.41,10.41,0,0,1,5.73,1.7Z"/><path class="cls-1" d="M102.13,67.1l4-24.83h5.6L110.27,51c-.06.42-.13.84-.21,1.25s-.18.82-.28,1.21a9.47,9.47,0,0,1,2.64-2.32,5.85,5.85,0,0,1,2.87-.72,5.38,5.38,0,0,1,3.9,1.35,5.09,5.09,0,0,1,1.38,3.79,20.21,20.21,0,0,1-.29,2.77c0,.12,0,.22,0,.29l-1.34,8.49h-5.72l1.34-8.57c0-.24.08-.48.11-.72s0-.44,0-.61a2.15,2.15,0,0,0-.56-1.6,2.31,2.31,0,0,0-1.65-.54,2.77,2.77,0,0,0-2.33,1.07,7.34,7.34,0,0,0-1.21,3.43l-1.16,7.54Z"/><path class="cls-1" d="M143.76,50.3a10.32,10.32,0,0,0-3.44-3,9.57,9.57,0,0,0-7.74-.29,8.68,8.68,0,0,0-2.89,2,10.25,10.25,0,0,0-2.16,3.3,10.12,10.12,0,0,0-.75,3.85,8.09,8.09,0,0,0,2.24,6A8,8,0,0,0,135,64.38a7.5,7.5,0,0,0,4.91-1.63,6.25,6.25,0,0,0,2.33-4.25h-6.07l.4-3.33h10q0,5.8-3.17,9.17a11.29,11.29,0,0,1-8.62,3.35,11.54,11.54,0,0,1-8.44-3.12,11.1,11.1,0,0,1-3.17-8.3,14.21,14.21,0,0,1,1-5.37A11.88,11.88,0,0,1,127,46.63,12.45,12.45,0,0,1,131.17,44a14,14,0,0,1,5.09-.91,13,13,0,0,1,5.61,1.12,13.31,13.31,0,0,1,4.48,3.64Z"/><path class="cls-1" d="M159.25,62.44l2.49,1.94a8.85,8.85,0,0,1-2.89,2.55,7.7,7.7,0,0,1-3.57.8,7.44,7.44,0,0,1-5.46-2,7.17,7.17,0,0,1-2.08-5.37,8.91,8.91,0,0,1,2.39-6.42,8.07,8.07,0,0,1,6.1-2.5,6.51,6.51,0,0,1,4.92,1.91A7.14,7.14,0,0,1,163,58.44q0,.27,0,.69c0,.29,0,.62-.07,1H151.31a4.93,4.93,0,0,0,1,3.29,3.45,3.45,0,0,0,2.77,1.23,4.72,4.72,0,0,0,2.28-.59A5.45,5.45,0,0,0,159.25,62.44Zm-7.64-4.76h7.84a3.4,3.4,0,0,0-1-2.42,3.27,3.27,0,0,0-2.42-.89,4.84,4.84,0,0,0-2.94.89A4,4,0,0,0,151.61,57.68Z"/><path class="cls-1" d="M175.82,62.44l2.49,1.94a8.85,8.85,0,0,1-2.89,2.55,7.7,7.7,0,0,1-3.57.8,7.44,7.44,0,0,1-5.46-2,7.17,7.17,0,0,1-2.08-5.37,8.91,8.91,0,0,1,2.39-6.42,8.07,8.07,0,0,1,6.1-2.5,6.51,6.51,0,0,1,4.92,1.91,7.14,7.14,0,0,1,1.84,5.14q0,.27,0,.69c0,.29,0,.62-.07,1H167.88a4.93,4.93,0,0,0,1,3.29,3.45,3.45,0,0,0,2.77,1.23,4.72,4.72,0,0,0,2.28-.59A5.45,5.45,0,0,0,175.82,62.44Zm-7.64-4.76H176a3.4,3.4,0,0,0-1-2.42,3.27,3.27,0,0,0-2.42-.89,4.84,4.84,0,0,0-2.94.89A4,4,0,0,0,168.18,57.68Z"/></g></g></svg>