<svg xmlns="http://www.w3.org/2000/svg" width="35.002" height="35.002" viewBox="0 0 35.002 35.002"><defs><style>.a{fill:#fff;}</style></defs><g transform="translate(-622 -6446)"><path class="a" d="M11643.5,19802a17.5,17.5,0,1,1,12.377-5.127A17.383,17.383,0,0,1,11643.5,19802Zm-3.15-25a.325.325,0,0,0-.158.039.358.358,0,0,0-.189.313v14.068a.359.359,0,0,0,.188.314.406.406,0,0,0,.164.039.378.378,0,0,0,.2-.064l10.2-7.031a.349.349,0,0,0,.154-.289.338.338,0,0,0-.154-.293l-10.2-7.033A.379.379,0,0,0,11640.348,19777Z" transform="translate(-11004 -13321)"/></g></svg>